<?xml version="1.0" encoding="UTF-8"?>
<svg width="44px" height="44px" viewBox="0 0 44 44" version="1.1" xmlns="http://www.w3.org/2000/svg" xmlns:xlink="http://www.w3.org/1999/xlink">
    <!-- Generator: Sketch 49.3 (51167) - http://www.bohemiancoding.com/sketch -->
    <title>购物车</title>
    <desc>Created with Sketch.</desc>
    <defs></defs>
    <g id="手机端" stroke="none" stroke-width="1" fill="none" fill-rule="evenodd">
        <g id="首页" transform="translate(-292.000000, -1756.000000)">
            <g id="购物车" transform="translate(292.000000, 1756.000000)">
                <circle id="Oval-6" fill="#e3e3e3" cx="22" cy="22" r="22"></circle>
                <g id="Group-8-Copy" transform="translate(6.000000, 11.000000)">
                    <path d="M0,0 L3.85294728,4.4408921e-16 C4.3503958,3.527094e-16 4.77220986,0.365641002 4.84282146,0.858052443 L7.17792543,17.1419476 C7.24853704,17.634359 7.6703511,18 8.16779961,18 L24,18" id="Path-9" stroke="#FFFFFF" stroke-width="2" stroke-linecap="round"></path>
                    <circle id="Oval-3" fill="#FFFFFF" cx="11" cy="22" r="2"></circle>
                    <circle id="Oval-3-Copy" fill="#FFFFFF" cx="21" cy="22" r="2"></circle>
                    <path d="M9,4 L27.1817782,4 C27.6336696,4 28,4.36633037 28,4.81822178 L28,5.20122747 C28,5.48801571 27.9383224,5.77144989 27.8191508,6.03230541 L25.6704647,10.7355753 C25.3892967,11.3510254 24.8160104,11.7825802 24.1468015,11.8825487 L9.97216797,14" id="Path-10" stroke="#FFFFFF" stroke-width="2" stroke-linecap="round"></path>
                </g>
            </g>
        </g>
    </g>
</svg>