<svg xmlns="http://www.w3.org/2000/svg" viewBox="0 0 178.5 40"><defs><style>.cls-1{fill:#4199ff;}</style></defs><title>资源 4</title><g id="图层_2" data-name="图层 2"><g id="图层_1-2" data-name="图层 1"><rect class="cls-1" x="79.66" y="18.15" width="3.16" height="1"/><rect class="cls-1" x="83.67" y="19.76" width="3.2" height="1.01"/><rect class="cls-1" x="79.66" y="19.76" width="3.16" height="1.01"/><rect class="cls-1" x="83.67" y="18.15" width="3.2" height="1"/><path class="cls-1" d="M170.39,0H0V40H178.5V0ZM89,16.62H83.67v.85h4v4.39h-.82v-.41h-3.2v1h4.47v.7H83.67V24H89v.73H77.46V24h5.37v-.86H78.38v-.7h4.45v-1H79.66v.42h-.82v-4.4h4v-.85H77.55V15.9h5.28V15l-4.41.11c0-.25-.1-.52-.16-.8,4,0,7.17-.15,9.62-.32l.14.8q-2.08.11-4.35.18v1H89Zm7.81,2.12H93.74v1.32H96.3v2.78c0,.85-.38,1.27-1.14,1.28h-1c0-.25-.09-.53-.17-.84l.94,0c.32,0,.49-.19.49-.58V20.85h-1.7V25.2h-.92V20.85H91.21v3.47h-.87V20.06h2.48V18.74H89.46v-.82h3.36V16.35H91.09a10.37,10.37,0,0,1-.68,1.28l-.8-.45a8.71,8.71,0,0,0,1.29-3l.87.22a11.94,11.94,0,0,1-.35,1.15h1.4V13.74h.92v1.79h2.54v.82H93.74v1.57H96.8Zm.45-3.89h.91v7.22h-.91Zm3.19,8.53c0,1.06-.46,1.59-1.39,1.59l-1.57,0c0-.3-.11-.64-.19-1,.66.07,1.15.1,1.48.1.49,0,.73-.28.73-.83V13.73h.94Z"/></g></g></svg>