<?xml version="1.0" encoding="utf-8"?>
<!-- Generator: Adobe Illustrator 17.0.0, SVG Export Plug-In . SVG Version: 6.00 Build 0)  -->
<!DOCTYPE svg PUBLIC "-//W3C//DTD SVG 1.1//EN" "http://www.w3.org/Graphics/SVG/1.1/DTD/svg11.dtd">
<svg version="1.1" id="图层_1" xmlns="http://www.w3.org/2000/svg" xmlns:xlink="http://www.w3.org/1999/xlink" x="0px" y="0px"
	 width="20px" height="20px" viewBox="0 0 20 20" enable-background="new 0 0 20 20" xml:space="preserve">
<path fill="#e3e3e3" d="M10,0C4.477,0,0,4.477,0,10c0,5.523,4.477,10,10,10c5.523,0,10-4.477,10-10C20,4.477,15.523,0,10,0z
	 M8.235,15c-0.422,0-0.763-0.344-0.763-0.765c0-0.423,0.343-0.765,0.763-0.765c0.42,0,0.763,0.344,0.763,0.765
	C8.998,14.658,8.655,15,8.235,15z M13.166,14.977c-0.408,0-0.74-0.333-0.74-0.742c0-0.409,0.332-0.742,0.74-0.742
	c0.408,0,0.74,0.333,0.74,0.742C13.907,14.644,13.574,14.977,13.166,14.977z M13.863,13.236H8.142c-0.536,0-1.008-0.424-1.074-0.966
	L6.471,8.058l-0.34-1.971V6.084c-0.017-0.136-0.147-0.26-0.272-0.26H5.411C5.184,5.824,5,5.64,5,5.412C5,5.184,5.184,5,5.411,5
	h0.448c0.542,0,1.018,0.424,1.085,0.969l0.34,1.964l0.6,4.233c0.017,0.13,0.139,0.248,0.26,0.248h5.72
	c0.227,0,0.411,0.184,0.411,0.412C14.274,13.052,14.089,13.236,13.863,13.236z M14.99,7.341v0.003l-0.555,3.177
	c-0.032,0.256-0.159,0.494-0.359,0.672c-0.199,0.177-0.451,0.276-0.709,0.277l-4.749,0.35H8.615l-0.026,0.002H8.586
	c-0.215,0-0.394-0.167-0.41-0.381c-0.008-0.11,0.028-0.215,0.099-0.299c0.07-0.082,0.17-0.133,0.28-0.141l4.78-0.353h0.003
	c0.142-0.002,0.266-0.108,0.283-0.245v-0.003l0.555-3.177c0.012-0.107-0.017-0.218-0.074-0.283
	c-0.034-0.039-0.076-0.057-0.125-0.057H7.878c-0.227,0-0.411-0.184-0.411-0.412c0-0.228,0.184-0.412,0.411-0.412h6.098
	c0.286,0,0.549,0.119,0.74,0.336C14.934,6.64,15.033,6.985,14.99,7.341z"/>
</svg>
