<?xml version="1.0" encoding="utf-8"?>
<!-- Generator: Adobe Illustrator 17.0.0, SVG Export Plug-In . SVG Version: 6.00 Build 0)  -->
<!DOCTYPE svg PUBLIC "-//W3C//DTD SVG 1.1//EN" "http://www.w3.org/Graphics/SVG/1.1/DTD/svg11.dtd">
<svg version="1.1" id="图层_1" xmlns="http://www.w3.org/2000/svg" xmlns:xlink="http://www.w3.org/1999/xlink" x="0px" y="0px"
	 width="40px" height="40px" viewBox="0 0 40 40" enable-background="new 0 0 40 40" xml:space="preserve">
<g>
	<path fill="#FF6785" d="M29.163,27.983L2.586,25.351l1.16-11.193l0.713,0.044L4.95,12.24l-3.433-0.357L0,27.089l31.394,3.166
		l0.223-2.497l-2.363-0.758L29.163,27.983z M21.582,30.658l-1.249-0.09l0.268,0.892l1.115-0.313L21.582,30.658z M8.382,35.206
		l-1.471-5.351l-2.587-0.178l2.275,8.117l24.215-6.644l-6.333-0.357L8.382,35.206z M16.499,26.331l0.268-2.81l1.828,0.178
		l-4.193-1.293l-1.204-0.09l-0.09,0.848l2.497,0.268l-0.268,2.765L16.499,26.331z M10.612,2.207L5.039,16.433l29.387,11.416
		L40,13.579L10.612,2.207z M32.909,25.083L8.025,15.451l4.103-10.48l24.884,9.632L32.909,25.083z M26.576,10.991l-3.79,3.345
		l-0.535-5.039l-1.204-0.447l0.669,5.217l-1.874-0.758l-0.357,0.803l2.409,0.936l-0.491,1.204l-2.363-0.936l-0.312,0.848
		l2.363,0.892l-1.026,2.631l1.07,0.401l1.026-2.587l2.409,0.892l0.312-0.803l-2.409-0.936l0.491-1.204l2.363,0.936l0.313-0.803
		l-1.874-0.758l4.058-3.345L26.576,10.991z"/>
</g>
</svg>
