<?xml version="1.0" encoding="utf-8"?>
<!-- Generator: Adobe Illustrator 17.0.0, SVG Export Plug-In . SVG Version: 6.00 Build 0)  -->
<!DOCTYPE svg PUBLIC "-//W3C//DTD SVG 1.1//EN" "http://www.w3.org/Graphics/SVG/1.1/DTD/svg11.dtd">
<svg version="1.1" id="图层_1" xmlns="http://www.w3.org/2000/svg" xmlns:xlink="http://www.w3.org/1999/xlink" x="0px" y="0px"
	 width="40px" height="40px" viewBox="0 0 40 40" enable-background="new 0 0 40 40" xml:space="preserve">
<g>
	<path fill="#FFAF18" d="M20,0C8.954,0,0,8.954,0,20c0,11.046,8.954,20,20,20s20-8.954,20-20C40,8.954,31.046,0,20,0z M14.103,8.595
		c1.463-1.234,4.708,1.371,5.851,1.28c1.143,0.091,4.388-2.514,5.851-1.28c1.463,1.234-1.771,4.055-1.771,4.055h-8.16
		C15.874,12.65,12.64,9.829,14.103,8.595z M24.343,14.113c0,0.404-0.327,0.731-0.731,0.731h-7.314c-0.404,0-0.731-0.327-0.731-0.731
		s0.327-0.731,0.731-0.731h7.314C24.016,13.381,24.343,13.708,24.343,14.113z M19.954,31.65c-5.655,0-10.239,0.51-10.239-4.274
		c0-3.557,2.536-9.158,6.159-11.801h8.16c3.624,2.643,6.16,8.244,6.16,11.801C30.194,32.16,25.61,31.65,19.954,31.65z"/>
	<path fill="#FFAF18" d="M20.067,20.926c0.323,0,0.576,0.101,0.759,0.302c0.183,0.201,0.275,0.49,0.275,0.867h2.03
		c0-0.635-0.216-1.146-0.647-1.536c-0.431-0.39-1.025-0.629-1.781-0.717l0-1.094h-1.048v1.073c-0.791,0.064-1.416,0.279-1.879,0.643
		c-0.463,0.365-0.694,0.83-0.694,1.396c0,0.624,0.228,1.104,0.686,1.439c0.458,0.336,1.169,0.636,2.131,0.9
		c0.443,0.167,0.75,0.333,0.921,0.501c0.171,0.168,0.257,0.396,0.257,0.684c0,0.282-0.083,0.507-0.252,0.677
		c-0.169,0.169-0.431,0.254-0.788,0.254c-0.384,0-0.692-0.096-0.921-0.285c-0.228-0.189-0.343-0.507-0.343-0.951h-1.98l-0.015,0.026
		c-0.02,0.722,0.228,1.269,0.744,1.643c0.515,0.373,1.179,0.592,1.988,0.656v1.001h1.055V27.4c0.791-0.065,1.413-0.271,1.868-0.623
		c0.455-0.352,0.683-0.819,0.683-1.402c0-0.621-0.234-1.107-0.701-1.46c-0.467-0.353-1.168-0.651-2.103-0.895
		c-0.467-0.186-0.783-0.359-0.946-0.518c-0.163-0.159-0.245-0.371-0.246-0.635c0-0.285,0.074-0.513,0.221-0.684
		C19.488,21.012,19.73,20.926,20.067,20.926z"/>
</g>
</svg>
