<?xml version="1.0" encoding="utf-8"?>
<!-- Generator: Adobe Illustrator 17.0.0, SVG Export Plug-In . SVG Version: 6.00 Build 0)  -->
<!DOCTYPE svg PUBLIC "-//W3C//DTD SVG 1.1//EN" "http://www.w3.org/Graphics/SVG/1.1/DTD/svg11.dtd">
<svg version="1.1" id="图层_1" xmlns="http://www.w3.org/2000/svg" xmlns:xlink="http://www.w3.org/1999/xlink" x="0px" y="0px"
	 width="31px" height="31px" viewBox="0 0 31 31" enable-background="new 0 0 31 31" xml:space="preserve">
<linearGradient id="SVGID_1_" gradientUnits="userSpaceOnUse" x1="0" y1="15.5" x2="31" y2="15.5">
	<stop  offset="0" style="stop-color:#29A3FE"/>
	<stop  offset="1" style="stop-color:#2D77FF"/>
</linearGradient>
<path fill="url(#SVGID_1_)" d="M17.716,13.16v4.455H28.79l-0.004-4.455H17.716z M28.786,19.842h-11.07
	c-1.219,0-2.214-1.001-2.214-2.227V13.16c0-1.227,0.995-2.227,2.214-2.227h11.07c1.219,0,2.214,1.001,2.214,2.227v4.455
	C31,18.846,30.005,19.842,28.786,19.842z M19.589,15.461c0-0.6,0.484-1.092,1.085-1.092c0.597,0,1.085,0.487,1.085,1.092
	c0,0.6-0.484,1.092-1.085,1.092C20.073,16.553,19.589,16.066,19.589,15.461z M25.443,28.908H3.321C1.492,28.908,0,27.407,0,25.567
	V5.433c0-1.84,1.492-3.341,3.321-3.341h22.226c1.829,0,3.321,1.501,3.321,3.341v3.271c0,0.613-0.493,1.114-1.107,1.114
	c-0.614,0-1.107-0.5-1.107-1.114V5.433c0-0.613-0.497-1.114-1.107-1.114H3.321c-0.61,0-1.107,0.5-1.107,1.114v20.134
	c0,0.613,0.497,1.114,1.107,1.114h22.122c0.61,0,1.107-0.5,1.107-1.114v-3.446c0-0.618,0.493-1.114,1.107-1.114
	c0.614,0,1.107,0.496,1.107,1.114v3.446C28.764,27.407,27.277,28.908,25.443,28.908z"/>
</svg>
