<?xml version="1.0" encoding="utf-8"?>
<!-- Generator: Adobe Illustrator 17.0.0, SVG Export Plug-In . SVG Version: 6.00 Build 0)  -->
<!DOCTYPE svg PUBLIC "-//W3C//DTD SVG 1.1//EN" "http://www.w3.org/Graphics/SVG/1.1/DTD/svg11.dtd">
<svg version="1.1" id="图层_1" xmlns="http://www.w3.org/2000/svg" xmlns:xlink="http://www.w3.org/1999/xlink" x="0px" y="0px"
	 width="31px" height="31px" viewBox="0 0 31 31" enable-background="new 0 0 31 31" xml:space="preserve">
<linearGradient id="SVGID_1_" gradientUnits="userSpaceOnUse" x1="0" y1="15.5" x2="31" y2="15.5">
	<stop  offset="0" style="stop-color:#29A3FE"/>
	<stop  offset="1" style="stop-color:#2D77FF"/>
</linearGradient>
<path fill="url(#SVGID_1_)" d="M18.046,14.973c1.51,0,2.701,0.425,3.538,1.266c1.373,1.392,1.32,3.451,1.32,3.464v0.043
	c0.022,1.409-0.381,2.536-1.2,3.347c-1.36,1.353-3.41,1.392-3.64,1.392h-6.386c-0.571,0-1.036-0.455-1.036-1.014v-0.022
	c0-0.564,0.465-1.014,1.036-1.014h6.382c1.333-0.009,2.759-1.101,2.759-2.71c0-1.856-1.789-2.579-2.737-2.701l-0.04-0.004
	l-5.359,0.004c-0.19,0-0.314,0.182-0.239,0.351c0.323,0.724,1.027,2.311,1.005,2.345h-0.009c-0.616-0.316-3.631-1.903-4.725-2.649
	c-0.407-0.273-0.616-0.559-0.62-0.837c0-0.408,0.394-0.889,1.205-1.465c0.74-0.525,1.577-1.01,2.312-1.435l0.164-0.095
	c0.523-0.299,0.97-0.559,1.32-0.793c0.111-0.074,0.186-0.104,0.23-0.117c0.018,0.065-0.585,1.6-0.864,2.302
	c-0.066,0.165,0.058,0.342,0.239,0.342H18.046z M2.515,7.998l2.139-3.364c0.19-0.295,0.518-0.477,0.877-0.477h19.946
	c0.359,0,0.691,0.182,0.877,0.477l2.139,3.364H2.515z M30.987,9.437c0-0.941-0.27-1.86-0.775-2.658l-2.21-3.494
	C27.532,2.54,26.7,2.089,25.805,2.089H5.208c-0.895,0-1.723,0.451-2.197,1.197l-2.228,3.49C0.27,7.577,0,8.505,0,9.454v3.728
	c0,0.572,0.474,1.036,1.058,1.036c0.585,0,1.058-0.464,1.058-1.036v-3.104h26.762v15.754c0,0.559-0.461,1.01-1.032,1.01H3.153
	c-0.571,0-1.032-0.451-1.032-1.01v-7.4c0-0.572-0.474-1.036-1.058-1.036c-0.585,0-1.058,0.464-1.058,1.036v7.951
	c0,1.396,1.156,2.527,2.582,2.527h25.832c1.426,0,2.582-1.132,2.582-2.527L30.987,9.437z"/>
</svg>
