<?xml version="1.0" encoding="UTF-8"?>
<svg width="46px" height="46px" viewBox="0 0 43 30" version="1.1" xmlns="http://www.w3.org/2000/svg" xmlns:xlink="http://www.w3.org/1999/xlink">
    <!-- Generator: Sketch 49.3 (51167) - http://www.bohemiancoding.com/sketch -->
    <title>领取优惠卷</title>
    <desc>Created with Sketch.</desc>
    <defs></defs>
    <g id="手机端" stroke="none" stroke-width="1" fill="none" fill-rule="evenodd" stroke-linecap="round">
        <g id="我的" transform="translate(-42.000000, -862.000000)" stroke="#555555" stroke-width="2">
            <g id="领取优惠卷" transform="translate(43.000000, 863.000000)">
                <path d="M41,17.0625 C41,18.373639 41,20.686139 41,24 C41,26.209139 39.209139,28 37,28 L4,28 C1.790861,28 3.81563803e-16,26.209139 1.11022302e-16,24 L1.11022302e-16,18.8999819 C2.28224032,18.4367116 4,16.4189579 4,14 C4,11.5810421 2.28224032,9.56328845 0,9.10001812 L1.11022302e-16,4 C-1.59519198e-16,1.790861 1.790861,3.07034751e-15 4,2.66453526e-15 L37,0 C39.209139,3.51840692e-15 41,1.790861 41,4 C41,7.77994792 41,10.6149089 41,12.5048828" id="Rectangle-23"></path>
                <g id="Group-16" transform="translate(14.000000, 5.000000)">
                    <path d="M0,8 L14,8" id="Path-16"></path>
                    <path d="M0,12 L14,12" id="Path-16-Copy"></path>
                    <path d="M7,8 L7,18" id="Path-16-Copy-2"></path>
                    <polyline id="Path-17" points="0.494140625 0.728515625 7.0546875 8 14 1"></polyline>
                </g>
            </g>
        </g>
    </g>
</svg>