<?xml version="1.0" encoding="UTF-8"?>
<svg width="46px" height="46px" viewBox="0 0 39 32" version="1.1" xmlns="http://www.w3.org/2000/svg" xmlns:xlink="http://www.w3.org/1999/xlink">
    <!-- Generator: Sketch 49.3 (51167) - http://www.bohemiancoding.com/sketch -->
    <title>我的关注</title>
    <desc>Created with Sketch.</desc>
    <defs></defs>
    <g id="手机端" stroke="none" stroke-width="1" fill="none" fill-rule="evenodd" stroke-linecap="round">
        <g id="我的" transform="translate(-46.000000, -1076.000000)" stroke="#555555" stroke-width="2">
            <g id="Group-23" transform="translate(47.000000, 1068.000000)">
                <path d="M35.2040298,13.3916399 C36.3353968,14.9941633 37,16.9497523 37,19.0605677 C37,21.7922227 35.8869527,24.2639116 34.0896428,26.0468497 C29.8210042,31.0560334 20.4711182,39.0064567 18.893617,39.0064567 C17.2207056,39.0064567 6.50200909,30.6257168 2.38729118,25.4861418 C0.899621018,23.7621161 0,21.5164007 0,19.0605677 C0,13.6258507 4.40570858,9.22014212 9.84042553,9.22014212 C13.5819087,9.22014212 16.8356921,11.3082335 18.5,14.3826408 C20.1643079,11.3082335 23.4180913,9.22014212 27.1595745,9.22014212 C29.4034601,9.22014212 31.4719309,9.97118261 33.1273225,11.2355993" id="我的关注"></path>
            </g>
        </g>
    </g>
</svg>