<?xml version="1.0" encoding="UTF-8"?>
<svg width="46px" height="46px" viewBox="0 0 46 34" version="1.1" xmlns="http://www.w3.org/2000/svg" xmlns:xlink="http://www.w3.org/1999/xlink">
    <!-- Generator: Sketch 49.3 (51167) - http://www.bohemiancoding.com/sketch -->
    <title>我的优惠卷</title>
    <desc>Created with Sketch.</desc>
    <defs></defs>
    <g id="手机端" stroke="none" stroke-width="1" fill="none" fill-rule="evenodd" stroke-linecap="round">
        <g id="我的" transform="translate(-42.000000, -939.000000)" stroke="#555555" stroke-width="2">
            <g id="我的优惠卷" transform="translate(43.000000, 940.000000)">
                <g id="Group-17-Copy" transform="translate(0.000000, 6.000000)">
                    <path d="M38,15.8140244 C38,17.0292264 38,19.1725191 38,22.2439024 C38,24.2913971 36.3401776,25.9512195 34.2926829,25.9512195 L3.70731707,25.9512195 C1.65982239,25.9512195 3.536445e-16,24.2913971 1.02898719e-16,22.2439024 L1.02898719e-16,17.5170564 C2.11524713,17.0876839 3.70731707,15.2175707 3.70731707,12.9756098 C3.70731707,10.7336488 2.11524713,8.86353564 0,8.43416313 L1.02898719e-16,3.70731707 C-1.47847062e-16,1.65982239 1.65982239,2.84568794e-15 3.70731707,2.46956926e-15 L34.2926829,0 C36.3401776,3.26096251e-15 38,1.65982239 38,3.70731707 C38,7.21068343 38,9.83820821 38,11.5898914" id="Rectangle-23"></path>
                    <g id="Group-16" transform="translate(12.975610, 4.634146)">
                        <path d="M0,7.41463415 L12.9756098,7.41463415" id="Path-16"></path>
                        <path d="M0,11.1219512 L12.9756098,11.1219512" id="Path-16-Copy"></path>
                        <path d="M6.48780488,7.41463415 L6.48780488,16.6829268" id="Path-16-Copy-2"></path>
                        <polyline id="Path-17" points="0.457983994 0.675209604 6.53849085 7.41463415 12.9756098 0.926829268"></polyline>
                    </g>
                </g>
                <g id="Group-17-Copy-2" transform="translate(6.000000, 0.000000)">
                    <path d="M38,15.8140244 C38,17.0292264 38,19.1725191 38,22.2439024 C38,24.2913971 36.3401776,25.9512195 34.2926829,25.9512195 C33.6192835,25.9512195 33.114234,25.9512195 32.7775343,25.9512195 M0,4.99618902 C1.07185785e-17,4.50381098 2.67964463e-17,4.69207317 4.82336034e-17,3.70731707 C-2.02512178e-16,1.65982239 1.65982239,2.84568794e-15 3.70731707,2.46956926e-15 L34.2926829,0 C36.3401776,3.26096251e-15 38,1.65982239 38,3.70731707 C38,7.21068343 38,9.83820821 38,11.5898914" id="Rectangle-23"></path>
                </g>
            </g>
        </g>
    </g>
</svg>