<?xml version="1.0" encoding="UTF-8"?>
<svg width="46px" height="46px" viewBox="0 0 38 38" version="1.1" xmlns="http://www.w3.org/2000/svg" xmlns:xlink="http://www.w3.org/1999/xlink">
    <!-- Generator: Sketch 49.3 (51167) - http://www.bohemiancoding.com/sketch -->
    <title>足迹</title>
    <desc>Created with Sketch.</desc>
    <defs></defs>
    <g id="手机端" stroke="none" stroke-width="1" fill="none" fill-rule="evenodd" stroke-linecap="round">
        <g id="我的（-前海超级前台）" transform="translate(-45.000000, -1157.000000)" stroke="#555555" stroke-width="2">
            <g id="Group-22" transform="translate(46.000000, 1151.333333)">
                <g id="足迹" transform="translate(0.000000, 6.000000)">
                    <path d="M13.2380292,25.7536542 C7.5094506,23.5633821 4.64516129,20.9421623 4.64516129,17.889995 C4.64516129,13.311744 6.78515625,6.96774194 18.1678427,6.96774194 C25.7563004,6.96774194 29.5505292,10.2922757 29.5505292,16.9413432 C29.2957409,19.7791709 30.1527218,21.8777722 32.1214718,23.2371472 C35.0745968,25.2762097 36.7904486,29.9962198 35.0745968,32.938004 C33.358745,35.8797883 30.6743952,35.8797883 27.3878528,35.8797883 C24.1013105,35.8797883 24.1013105,31.7200101 24.1013105,30.1300403 C24.1013105,28.5400706 20.078755,26.9149446 17.8196825,26.9149446" id="Path-18"></path>
                    <path d="M17.8423639,0.825604839 C12.8259829,0.53452621 8.86466734,1.93397177 5.95841734,5.02394153" id="Path-19"></path>
                    <path d="M2.25113407,8.32409274 L0.67250504,11.6287802" id="Path-20"></path>
                </g>
            </g>
        </g>
    </g>
</svg>