<?xml version="1.0" encoding="UTF-8"?>
<svg width="46px" height="46px" viewBox="0 0 33 33" version="1.1" xmlns="http://www.w3.org/2000/svg" xmlns:xlink="http://www.w3.org/1999/xlink">
    <!-- Generator: Sketch 49.3 (51167) - http://www.bohemiancoding.com/sketch -->
    <title>足迹</title>
    <desc>Created with Sketch.</desc>
    <defs></defs>
    <g id="手机端" stroke="none" stroke-width="1" fill="none" fill-rule="evenodd" stroke-linecap="round">
        <g id="我的" transform="translate(-46.000000, -1157.000000)" stroke="#555555" stroke-width="2">
            <g id="Group-22" transform="translate(47.000000, 1151.333333)">
                <g id="足迹" transform="translate(0.000000, 6.000000)">
                    <path d="M11.3994141,22.1767578 C6.46647135,20.2906901 4,18.0335286 4,15.4052734 C4,11.4628906 5.84277344,6 15.6445313,6 C22.1790365,6 25.4462891,8.86279297 25.4462891,14.5883789 C25.226888,17.0320638 25.9648438,18.8391927 27.6601563,20.0097656 C30.203125,21.765625 31.6806641,25.8300781 30.203125,28.3632813 C28.7255859,30.8964844 26.4140625,30.8964844 23.5839844,30.8964844 C20.7539062,30.8964844 20.7539062,27.3144531 20.7539062,25.9453125 C20.7539062,24.5761719 17.2900391,23.1767578 15.3447266,23.1767578" id="Path-18"></path>
                    <path d="M15.3642578,0.7109375 C11.0445964,0.460286458 7.63346354,1.66536458 5.13085938,4.32617188" id="Path-19"></path>
                    <path d="M1.93847656,7.16796875 L0.579101562,10.0136719" id="Path-20"></path>
                </g>
            </g>
        </g>
    </g>
</svg>