<?xml version="1.0" encoding="UTF-8"?>
<svg width="44px" height="42px" viewBox="0 0 44 42" version="1.1" xmlns="http://www.w3.org/2000/svg" xmlns:xlink="http://www.w3.org/1999/xlink">
    <!-- Generator: Sketch 49.3 (51167) - http://www.bohemiancoding.com/sketch -->
    <title>设置</title>
    <desc>Created with Sketch.</desc>
    <defs></defs>
    <g id="手机端" stroke="none" stroke-width="1" fill="none" fill-rule="evenodd">
        <g id="我的（-前海超级前台）" transform="translate(-674.000000, -151.000000)" fill="#FFFFFF" fill-rule="nonzero">
            <g id="设置" transform="translate(674.000000, 151.000000)">
                <path d="M43.5423019,16.6872112 C43.2416862,15.0891192 42.2244668,14.0618652 40.9514257,14.084953 L40.7742718,14.084953 C38.1424945,14.084953 36.0015812,11.9312284 36.0015812,9.28426935 C36.0015812,8.45921143 36.4019976,7.50279726 36.4194905,7.46185964 C37.0310356,6.07150691 36.558069,4.36850277 35.3211261,3.5005748 L35.2687484,3.46350213 C35.2469075,3.44783906 35.2242071,3.43365072 35.2010012,3.42063208 L29.8877989,0.451715225 C29.867222,0.440171306 29.8458867,0.429593675 29.8243491,0.420236477 L29.7666629,0.394707673 C29.3566911,0.215548452 28.9103178,0.124519509 28.4397274,0.124519509 C27.483076,0.124519509 26.5388618,0.514520056 25.9149301,1.16596189 C25.2263352,1.88102222 23.3903349,3.35747108 22.1111259,3.35747108 C20.820339,3.35747108 18.9728117,1.85183192 18.2820934,1.12426148 C17.6543193,0.458885653 16.7024709,0.061358656 15.7364157,0.061358656 C15.274774,0.061358656 14.8362877,0.149031235 14.4336467,0.321884539 L14.3762638,0.34619281 C14.3532601,0.356312791 14.3305597,0.36739901 14.308466,0.379400579 L8.80774551,3.4189538 C8.78453953,3.4317182 8.76229421,3.44544884 8.74070609,3.4606542 L8.68660942,3.49843887 C7.44324569,4.36728219 6.96795342,6.07054062 7.5804591,7.46109681 C7.6972472,7.73362426 7.99857066,8.58751645 7.99857066,9.28426935 C7.99857066,11.9312793 5.85740456,14.084953 3.22582948,14.084953 L3.04902945,14.084953 C3.03456995,14.0846987 3.02051493,14.0845461 3.00610602,14.0845461 C1.75531033,14.0845461 0.755078215,15.1062063 0.45764766,16.6876689 C0.410932409,16.9377697 0,19.1839471 0,21.0171888 C0,22.8504813 0.410932409,25.0964044 0.457900422,25.3472172 C0.755381519,26.9282222 1.75632143,27.9496789 3.00757215,27.9496789 C3.02127327,27.9496789 3.03482271,27.9494755 3.04872604,27.9492212 L3.22577884,27.9492212 C5.85765728,27.9492212 7.99852002,30.1029458 7.99852002,32.7499048 C7.99852002,33.5725217 7.60002482,34.5266475 7.58086344,34.5721111 C6.96982393,35.9609891 7.44132439,37.6639933 8.67988514,38.5359895 L8.73155504,38.5723503 C8.7518792,38.5865385 8.77301229,38.5997607 8.79449927,38.6120674 L14.0066873,41.5438097 C14.0276687,41.5556079 14.0493074,41.5664398 14.0712494,41.5761021 L14.12661,41.6006138 C14.536784,41.7817054 14.9827023,41.8736498 15.4518771,41.8736498 C16.4243025,41.8736498 17.3773138,41.4660537 18.001296,40.7834891 C18.6693139,40.0535285 20.5754881,38.4530972 21.8889248,38.4530972 C23.2175287,38.4530972 25.1002442,40.0552576 25.8024391,40.8294613 C26.4275841,41.5235189 27.3873701,41.9383871 28.3696037,41.9386413 L28.3698565,41.9386413 C28.8303354,41.9386413 29.2685689,41.8497991 29.6718671,41.6745557 L29.7280872,41.6501965 C29.7508381,41.6405851 29.7728812,41.6294989 29.7944188,41.6174465 L35.1970575,38.6141015 C35.2200612,38.6010828 35.2425088,38.5871488 35.2642991,38.5719942 L35.3164746,38.5351249 C36.5570071,37.6655188 37.0311366,35.9639386 36.4205521,34.5748572 C36.4016435,34.5303089 36.0014799,33.5736405 36.0014799,32.7497522 C36.0014799,30.1027423 38.142646,27.9490686 40.7741705,27.9490686 L40.9517795,27.9490686 C40.9644694,27.9493229 40.977665,27.9493229 40.9893438,27.9495263 C42.2428191,27.9493229 43.244669,26.9278153 43.5416951,25.3485394 C43.5462453,25.3242311 44,22.9160831 44,21.0170362 C44.0001012,19.1810992 43.5891688,16.9373628 43.5423019,16.6872112 Z M41.0344983,24.8570951 C40.8884931,25.6345835 40.4788726,26.1571387 40.0154355,26.1571387 L40.0013338,26.1569457 C39.9963454,26.1569457 39.9915969,26.1567045 39.9865606,26.1567045 L39.8114886,26.1567045 C36.5274259,26.1567045 33.8557314,28.8440209 33.8557314,32.1471525 C33.8557314,33.2473601 34.3512091,34.4039676 34.3723616,34.4525998 C34.3730331,34.453999 34.3737047,34.4555911 34.3743762,34.4571832 C34.6786657,35.1467187 34.4340925,36.0253795 33.8164481,36.4584379 L33.7967345,36.4720916 L28.7347078,39.2861992 L28.7131235,39.2958002 C28.5099441,39.3839461 28.284413,39.4287186 28.0430535,39.4287186 C27.507621,39.4285256 26.9926695,39.211514 26.6638219,38.8465793 C26.2836999,38.427657 25.5930049,37.783859 24.7937173,37.2333693 C23.7226125,36.495877 22.7473896,36.1219685 21.894717,36.1219685 C20.0143479,36.1219685 17.8366442,38.0526389 17.15583,38.7967409 C16.8342731,39.1486974 16.3099685,39.3670599 15.7878223,39.3670599 C15.5413785,39.3670599 15.3113387,39.320647 15.1045619,39.2293169 L15.0836012,39.2202466 L10.1993805,36.4728153 L10.1803384,36.4593546 C9.56504424,36.0261032 9.32181408,35.1458021 9.6272068,34.454192 C9.63238701,34.4423234 10.1442687,33.2651148 10.1442687,32.1473938 C10.1442687,28.844021 7.47257422,26.1569458 4.18865541,26.1569458 L4.01339155,26.1569458 C4.00816339,26.1569458 4.00293519,26.1569458 3.99794683,26.1569458 L3.9815908,26.15738 C3.52016817,26.15738 3.11169887,25.6348248 2.96540583,24.8577706 C2.94861811,24.7684668 2.55583328,22.6528203 2.55583328,21.0163073 C2.55583328,19.3796496 2.94861806,17.2639548 2.96540583,17.1753265 C3.11145902,16.3976933 3.51949668,15.8753311 3.98019982,15.8753311 L3.99660383,15.8753311 C4.00207184,15.8755241 4.00768375,15.8755241 4.01339155,15.8755241 L4.18865541,15.8755241 C7.47257427,15.8755241 10.1442687,13.1881594 10.1442687,9.88502782 C10.1442687,8.79509668 9.66529095,7.66618255 9.62562396,7.57499711 C9.32128648,6.88522039 9.56653118,6.00680082 10.1839837,5.57533458 L10.2044167,5.5609572 L15.3588719,2.71307727 L15.3810796,2.70347626 C15.585698,2.61576456 15.8134355,2.57118501 16.0577209,2.57118501 C16.5822654,2.57118501 17.1108868,2.78612207 17.4390629,3.13397759 C17.8138609,3.5286802 18.4937157,4.1350874 19.2773667,4.65301095 C20.3264077,5.34674386 21.2780798,5.69816956 22.1055228,5.69816956 C22.9250036,5.69816956 23.8689054,5.35354657 24.9108956,4.67361211 C25.6899899,4.16524134 26.3664393,3.56997904 26.7412852,3.18082473 C27.0657679,2.84165354 27.5903124,2.63101043 28.1095807,2.63101043 C28.3591423,2.63101043 28.5911966,2.67713386 28.7973978,2.76735433 L28.8194138,2.77719655 L33.7974059,5.55893086 L33.8185105,5.57374246 C34.4348118,6.00636664 34.6786656,6.88618536 34.3737045,7.57658923 C34.3684764,7.58855431 33.8559711,8.76040759 33.8559711,9.88507605 C33.8559711,13.1882077 36.5276656,15.8755723 39.8114885,15.8755723 L39.9868003,15.8755723 C39.9922204,15.8755723 39.9974965,15.8755723 40.0029165,15.8753793 L40.0181214,15.8753793 C40.4799757,15.8753793 40.888493,16.3977415 41.0346901,17.1749887 C41.0515258,17.2640513 41.4443106,19.3774785 41.4443106,21.0161625 C41.4443587,22.6831671 41.0388152,24.8342746 41.0344983,24.8570951 Z M21.9116819,12.3007295 C17.1485033,12.3007295 13.2733958,16.1985112 13.2733958,20.9896271 C13.2733958,25.780743 17.1485033,29.6785247 21.9116819,29.6785247 C26.6749144,29.6785247 30.5502372,25.7807429 30.5502372,20.9896271 C30.5502373,16.1985112 26.6749144,12.3007295 21.9116819,12.3007295 Z M21.9116966,27.2932415 C18.4559674,27.2932415 15.6448389,24.465432 15.6448389,20.9896753 C15.6448389,17.5139186 18.4559674,14.6860609 21.9116966,14.6860609 C25.367234,14.6860609 28.1787942,17.5139186 28.1787942,20.9896753 C28.1787942,24.465432 25.367234,27.2932415 21.9116966,27.2932415 Z" id="Shape"></path>
            </g>
        </g>
    </g>
</svg>