<?xml version="1.0" encoding="utf-8"?>
<!-- Generator: Adobe Illustrator 17.0.0, SVG Export Plug-In . SVG Version: 6.00 Build 0)  -->
<!DOCTYPE svg PUBLIC "-//W3C//DTD SVG 1.1//EN" "http://www.w3.org/Graphics/SVG/1.1/DTD/svg11.dtd">
<svg version="1.1" id="图层_1" xmlns="http://www.w3.org/2000/svg" xmlns:xlink="http://www.w3.org/1999/xlink" x="0px" y="0px"
	 width="40px" height="40px" viewBox="0 0 40 40" enable-background="new 0 0 40 40" xml:space="preserve">
<path fill="#09AB09" d="M15.249,24.77C12.855,26.1,12.5,24.024,12.5,24.024L9.499,17.05c-1.155-3.314,0.999-1.494,0.999-1.494
	s1.848,1.393,3.251,2.241c1.402,0.849,3,0.249,3,0.249l19.616-9.018c-3.619-4.485-9.597-7.418-16.366-7.418
	C8.953,1.609,0,9.414,0,19.043c0,5.538,2.965,10.468,7.583,13.663L6.75,37.474c0,0-0.406,1.392,1.001,0.746
	c0.959-0.44,3.403-2.018,4.858-2.978c2.287,0.794,4.779,1.235,7.391,1.235c11.045,0,20-7.805,20-17.434
	c0-2.789-0.755-5.423-2.091-7.761C31.659,15.028,17.123,23.732,15.249,24.77L15.249,24.77L15.249,24.77z"/>
</svg>
