<?xml version="1.0" encoding="UTF-8"?>
<svg width="46px" height="46px" viewBox="0 0 29 34" version="1.1" xmlns="http://www.w3.org/2000/svg" xmlns:xlink="http://www.w3.org/1999/xlink">
    <!-- Generator: Sketch 49.3 (51167) - http://www.bohemiancoding.com/sketch -->
    <title>消息提醒设置</title>
    <desc>Created with Sketch.</desc>
    <defs>
        <path d="M23.2489678,19.9415742 L28.0620366,26.8575593 C28.6929892,27.7641864 28.4695108,29.010641 27.5628838,29.6415935 C27.2276059,29.8749248 26.8289216,30 26.4204431,30 L2,30 C0.8954305,30 0,29.1045695 0,28 C0,27.6030326 0.118131775,27.2150445 0.339355027,26.8854336 C3.56100522,22.0969504 5.1975428,19.6756732 5.24896777,19.6216019 C5.30039274,19.5675307 5.30039274,16.8603301 5.24896777,11.5 C5.24896777,6.80557963 9.0545474,3 13.7489678,3 L14.7489678,3 C19.4433881,3 23.2489678,6.80557963 23.2489678,11.5 L23.2489678,19.9415742 Z" id="path-1"></path>
        <rect id="path-2" x="4" y="0" width="4" height="5" rx="2"></rect>
        <rect id="path-3" x="0" y="32" width="13" height="2" rx="1"></rect>
    </defs>
    <g id="手机端" stroke="none" stroke-width="1" fill="none" fill-rule="evenodd">
        <g id="我的" transform="translate(-46.000000, -1325.000000)">
            <g id="Group-21" transform="translate(46.000000, 1318.000000)">
                <g id="消息提醒设置" transform="translate(0.000000, 7.000000)">
                    <g id="Rectangle-22">
                        <use fill="#FFFFFF" fill-rule="evenodd" xlink:href="#path-1"></use>
                        <path stroke="#555555" stroke-width="2" d="M27.2412399,27.4287797 L22.2489678,20.2552942 L22.2489678,11.5 C22.2489678,7.35786438 18.8911034,4 14.7489678,4 L13.7489678,4 C9.60683215,4 6.24896777,7.35786438 6.24892176,11.4904068 C6.34629778,21.6404883 6.34629778,19.9188615 5.97358355,20.310755 C5.98902779,20.2945161 3.79156512,23.5456887 1.16967751,27.4427168 C1.05906589,27.6075223 1,27.8015163 1,28 C1,28.5522847 1.44771525,29 2,29 L26.4204431,29 C26.6246824,29 26.8240245,28.9374624 26.9916634,28.8207968 C27.444977,28.5053205 27.5567161,27.8820932 27.2412399,27.4287797 Z M4.26474682,19.4644688 C4.26474565,19.4644789 4.26474448,19.4644889 4.26474331,19.464499 C4.26473616,19.4645603 4.26476601,19.4641389 4.26482748,19.4632658 Z"></path>
                    </g>
                    <g id="Group-20" transform="translate(8.000000, 0.000000)">
                        <g id="Rectangle-24">
                            <use fill="#FFFFFF" fill-rule="evenodd" xlink:href="#path-2"></use>
                            <rect stroke="#555555" stroke-width="2" x="5" y="1" width="2" height="3" rx="1"></rect>
                        </g>
                        <g id="Rectangle-25">
                            <use fill="#D8D8D8" fill-rule="evenodd" xlink:href="#path-3"></use>
                            <rect stroke="#555555" stroke-width="1" x="0.5" y="32.5" width="12" height="1" rx="0.5"></rect>
                        </g>
                    </g>
                </g>
            </g>
        </g>
    </g>
</svg>