<?xml version="1.0" encoding="utf-8"?>
<!-- Generator: Adobe Illustrator 17.0.0, SVG Export Plug-In . SVG Version: 6.00 Build 0)  -->
<!DOCTYPE svg PUBLIC "-//W3C//DTD SVG 1.1//EN" "http://www.w3.org/Graphics/SVG/1.1/DTD/svg11.dtd">
<svg version="1.1" id="图层_1" xmlns="http://www.w3.org/2000/svg" xmlns:xlink="http://www.w3.org/1999/xlink" x="0px" y="0px"
	 width="31px" height="31px" viewBox="0 0 31 31" enable-background="new 0 0 31 31" xml:space="preserve">
<linearGradient id="SVGID_1_" gradientUnits="userSpaceOnUse" x1="0" y1="15.5" x2="31" y2="15.5">
	<stop  offset="0" style="stop-color:#29A3FE"/>
	<stop  offset="1" style="stop-color:#2D77FF"/>
</linearGradient>
<path fill="url(#SVGID_1_)" d="M29.33,23.84h-0.995c-0.42-1.455-1.762-2.522-3.347-2.522c-1.586,0-2.927,1.067-3.347,2.522h-9.4
	V4.372H29.33V23.84z M24.988,26.645c-1.009,0-1.83-0.823-1.83-1.835c0-1.012,0.821-1.834,1.83-1.834c1.009,0,1.83,0.823,1.83,1.834
	C26.818,25.822,25.997,26.645,24.988,26.645z M7.091,26.645c-1.009,0-1.83-0.823-1.83-1.835c0-1.012,0.821-1.834,1.83-1.834
	c1.009,0,1.83,0.823,1.83,1.834C8.921,25.822,8.1,26.645,7.091,26.645z M1.654,16.985l3.301-7.217h5.616V23.84h-0.132
	c-0.42-1.455-1.762-2.522-3.347-2.522s-2.927,1.067-3.347,2.522H1.654V16.985z M29.983,2.698H11.587
	c-0.561,0-1.017,0.457-1.017,1.019v4.394H4.424c-0.323,0-0.617,0.189-0.752,0.483l-3.597,7.865C0.026,16.568,0,16.685,0,16.805
	v7.865c0,0.458,0.37,0.829,0.827,0.829h2.847c0.32,1.597,1.73,2.804,3.416,2.804s3.097-1.207,3.416-2.804h0.899
	c0.001,0,0.001,0,0.002,0c0.058,0.01,0.118,0.016,0.18,0.016h9.987c0.326,1.589,1.732,2.788,3.413,2.788
	c1.681,0,3.087-1.199,3.413-2.788h1.582c0.561,0,1.017-0.457,1.017-1.019V3.717C31,3.155,30.544,2.698,29.983,2.698z M3.83,17.072
	h3.29c0.457,0,0.827-0.371,0.827-0.829v-3.297c0-0.458-0.37-0.829-0.827-0.829c-0.457,0-0.827,0.371-0.827,0.829v2.468H3.83
	c-0.457,0-0.827,0.371-0.827,0.829C3.003,16.701,3.374,17.072,3.83,17.072z"/>
</svg>
