<?xml version="1.0" encoding="utf-8"?>
<!-- Generator: Adobe Illustrator 17.0.0, SVG Export Plug-In . SVG Version: 6.00 Build 0)  -->
<!DOCTYPE svg PUBLIC "-//W3C//DTD SVG 1.1//EN" "http://www.w3.org/Graphics/SVG/1.1/DTD/svg11.dtd">
<svg version="1.1" id="图层_1" xmlns="http://www.w3.org/2000/svg" xmlns:xlink="http://www.w3.org/1999/xlink" x="0px" y="0px"
	 width="20px" height="20px" viewBox="0 0 20 20" enable-background="new 0 0 20 20" xml:space="preserve">
<g>
	<path fill="#999999" d="M19.476,7.467c0.087,0,0.262-0.087,0.349-0.087c0.087-0.087,0.087-0.175,0.087-0.349V4.061
		c0-1.485-0.437-1.921-1.921-1.921H1.921C0.524,2.14,0,2.576,0,4.061v2.969C0,7.118,0.087,7.293,0.175,7.38
		c0.087,0.087,0.175,0.087,0.349,0.087c0.873,0,1.485,0.175,1.921,0.524C2.882,8.428,3.057,9.039,3.057,10
		c0,1.659-0.873,2.533-2.533,2.533c-0.262,0-0.437,0.175-0.437,0.437v2.969c0,1.485,0.437,1.921,1.921,1.921h16.07
		c1.485,0,1.921-0.437,1.921-1.921v-2.969c0-0.087-0.087-0.262-0.175-0.349c-0.087-0.087-0.262-0.087-0.349-0.087
		c-0.786,0-1.397-0.175-1.834-0.611c-0.437-0.437-0.699-1.135-0.699-1.921c0-0.786,0.262-1.397,0.699-1.834
		C18.166,7.555,18.952,7.467,19.476,7.467z M16.07,10c0,1.048,0.349,1.921,0.961,2.533c0.524,0.524,1.223,0.786,2.009,0.873v2.533
		c0,0.961-0.087,1.048-1.048,1.048H1.921c-0.961,0-1.048-0.087-1.048-1.048v-2.533C2.795,13.231,3.843,12.009,3.843,10
		c0-1.223-0.262-2.096-0.873-2.62C2.533,6.856,1.834,6.594,0.873,6.594V4.061c0-0.961,0.087-1.048,1.048-1.048h16.07
		c0.961,0,1.048,0.087,1.048,1.048v2.533c-0.786,0.087-1.572,0.349-2.009,0.873C16.419,8.079,16.07,8.952,16.07,10z"/>
	<path fill="#999999" d="M13.537,4.585c-0.175-0.175-0.437-0.175-0.611,0L9.956,7.555L6.987,4.585c-0.175-0.175-0.437-0.175-0.611,0
		c-0.175,0.175-0.175,0.437,0,0.611l2.533,2.533H6.638c-0.262,0-0.437,0.175-0.437,0.437c0,0.262,0.175,0.524,0.437,0.524H9.52
		v1.921H6.638c-0.262,0-0.437,0.175-0.437,0.437c0,0.262,0.175,0.437,0.437,0.437l2.882,0v3.581c0,0.262,0.175,0.437,0.437,0.437
		s0.437-0.175,0.437-0.437v-3.581h2.882c0.262,0,0.437-0.175,0.437-0.437c0-0.262-0.175-0.437-0.437-0.437h-2.882V8.69h2.882
		c0.262,0,0.437-0.175,0.437-0.437c0-0.262-0.175-0.437-0.437-0.437h-2.271l2.533-2.533C13.712,5.109,13.712,4.76,13.537,4.585z"/>
</g>
</svg>
