<?xml version="1.0" encoding="UTF-8"?>
<svg width="44px" height="44px" viewBox="0 0 44 44" version="1.1" xmlns="http://www.w3.org/2000/svg" xmlns:xlink="http://www.w3.org/1999/xlink">
    <!-- Generator: Sketch 49.3 (51167) - http://www.bohemiancoding.com/sketch -->
    <title>发现</title>
    <desc>Created with Sketch.</desc>
    <defs></defs>
    <g id="手机端" stroke="none" stroke-width="1" fill="none" fill-rule="evenodd">
        <g id="首页" transform="translate(-347.000000, -2307.000000)" stroke="#D0D0D0" stroke-width="2">
            <g id="Group-5" transform="translate(1.000000, 2291.000000)">
                <g id="发现" transform="translate(347.000000, 17.000000)">
                    <path d="M28.3740126,40.668834 C36.3343985,37.6830395 42,30.0031558 42,21 C42,9.40202025 32.5979797,0 21,0 C9.40202025,0 0,9.40202025 0,21 C0,32.5979797 9.40202025,42 21,42" id="Oval-5" stroke-linecap="round"></path>
                    <g id="Group-11" transform="translate(20.500000, 21.500000) rotate(-315.000000) translate(-20.500000, -21.500000) translate(16.000000, 7.000000)">
                        <path d="M1.33554464,13.5 L7.66446108,13.5 L4.50002695,2.71419413 L1.33554464,13.5 Z M4.29980698,1.94607666 C4.29823048,1.94598017 4.29642749,1.94572878 4.29437815,1.94529819 L4.2919484,1.94454476 C4.2945747,1.94507011 4.29719462,1.94558082 4.29980698,1.94607666 Z" id="Triangle"></path>
                        <path d="M7.66445536,15.5 L1.335541,15.5 L4.49998289,26.2857724 L7.66445536,15.5 Z M4.29980174,27.0539243 C4.29719111,27.0544199 4.29457294,27.0549302 4.29194725,27.0554556 L4.29437815,27.0547018 C4.29642531,27.0542717 4.29822664,27.0540204 4.29980174,27.0539243 Z" id="Triangle-Copy"></path>
                    </g>
                </g>
            </g>
        </g>
    </g>
</svg>