<svg xmlns="http://www.w3.org/2000/svg" xmlns:xlink="http://www.w3.org/1999/xlink" viewBox="0 0 178.5 40"><defs><style>.cls-1{fill:url(#未命名的渐变_32);}.cls-2{fill:url(#未命名的渐变_32-2);}.cls-3{fill:url(#未命名的渐变_32-3);}.cls-4{fill:url(#未命名的渐变_32-4);}.cls-5{fill:url(#未命名的渐变_32-5);}.cls-6{fill:url(#未命名的渐变_32-6);}.cls-7{fill:url(#未命名的渐变_32-7);}</style><linearGradient id="未命名的渐变_32" x1="82.66" y1="16.12" x2="86.39" y2="16.12" gradientUnits="userSpaceOnUse"><stop offset="0" stop-color="#2b8dff"/><stop offset="1" stop-color="#2d77ff"/></linearGradient><linearGradient id="未命名的渐变_32-2" x1="79.41" y1="20.69" x2="80.6" y2="20.69" xlink:href="#未命名的渐变_32"/><linearGradient id="未命名的渐变_32-3" x1="83.19" y1="20.68" x2="85.02" y2="20.68" xlink:href="#未命名的渐变_32"/><linearGradient id="未命名的渐变_32-4" x1="85.85" y1="20.68" x2="87.79" y2="20.68" xlink:href="#未命名的渐变_32"/><linearGradient id="未命名的渐变_32-5" x1="83.25" y1="18.33" x2="85.02" y2="18.33" xlink:href="#未命名的渐变_32"/><linearGradient id="未命名的渐变_32-6" x1="85.85" y1="18.33" x2="87.79" y2="18.33" xlink:href="#未命名的渐变_32"/><linearGradient id="未命名的渐变_32-7" x1="0" y1="20" x2="178.5" y2="20" xlink:href="#未命名的渐变_32"/></defs><title>资源 5</title><g id="图层_2" data-name="图层 2"><g id="图层_1-2" data-name="图层 1"><path class="cls-1" d="M83.56,15.51c-.28.42-.59.83-.9,1.23h2.81l.92-1.23Z"/><rect class="cls-2" x="79.41" y="18.78" width="1.2" height="3.82"/><path class="cls-3" d="M83.19,21.49H85V19.88H83.25C83.25,20.07,83.23,20.6,83.19,21.49Z"/><rect class="cls-4" x="85.85" y="19.88" width="1.93" height="1.61"/><rect class="cls-5" x="83.25" y="17.54" width="1.77" height="1.59"/><rect class="cls-6" x="85.85" y="17.54" width="1.93" height="1.59"/><path class="cls-7" d="M0,0V40H178.5V0ZM91.17,13.86c.75.75,1.41,1.45,2,2.07l-.81.67q-.81-1-1.86-2.16ZM79.41,24.26h-.78V19.75c-.22.46-.46.91-.72,1.34-.16-.19-.36-.41-.6-.65a15.62,15.62,0,0,0,1.94-4.87H77.68v-.8h4.2v.8h-1.8A19.65,19.65,0,0,1,79.37,18h2v5.37h-2Zm9.21-.55c0,.85-.37,1.27-1.1,1.27-.42,0-.77,0-1.07,0,0-.27-.11-.55-.18-.85.43,0,.76.06,1,.06s.54-.19.54-.58V22.24H85.85v2.61H85V22.24H83.09a6.44,6.44,0,0,1-1.26,3,7.34,7.34,0,0,0-.68-.7,6.65,6.65,0,0,0,1.27-4.41V17c-.2.24-.4.47-.61.7-.19-.18-.41-.38-.67-.6a13.25,13.25,0,0,0,2.59-3.58l.89.17c-.19.35-.38.69-.58,1h3.41v.74l-1,1.24h2.16ZM91.3,24l-.69-.73a1.4,1.4,0,0,0,.37-1v-4H89.41v-.84H91.9v4.78c.58-.46,1.27-1,2.08-1.72a8,8,0,0,0,.19.95c-.81.62-1.59,1.27-2.33,1.93A4.3,4.3,0,0,0,91.3,24Zm9,.89a9,9,0,0,1-3.41-5.62,9.29,9.29,0,0,1-3.6,5.83c-.18-.22-.41-.47-.68-.75a8.92,8.92,0,0,0,3.66-7.67c0-.88,0-1.86,0-3h1c0,1,0,2,0,3,.43,3.57,1.71,6,3.85,7.25C100.83,24.34,100.57,24.64,100.35,24.93Z"/></g></g></svg>