<?xml version="1.0" encoding="UTF-8"?>
<svg width="31px" height="24px" viewBox="0 0 31 24" version="1.1" xmlns="http://www.w3.org/2000/svg" xmlns:xlink="http://www.w3.org/1999/xlink">
    <!-- Generator: Sketch 52.4 (67378) - http://www.bohemiancoding.com/sketch -->
    <title>分组</title>
    <desc>Created with Sketch.</desc>
    <g id="一级页面" stroke="none" stroke-width="1" fill="none" fill-rule="evenodd">
        <g id="切换项目" transform="translate(-647.000000, -158.000000)" fill="#CCCCCC">
            <g id="分组" transform="translate(647.000000, 157.000000)">
                <path d="M1,6.31689453 L20.1132813,6.31689453 L20.1132812,2.01163887 C20.1132812,1.45935412 20.5609965,1.01163887 21.1132812,1.01163887 C21.3312371,1.01163887 21.5432252,1.08284773 21.716982,1.21442783 L30.6037007,7.9440367 C30.853329,8.1330717 31,8.42812073 31,8.74124774 L31,9.31689453 C31,9.86917928 30.5522847,10.3168945 30,10.3168945 L1,10.3168945 C0.44771525,10.3168945 -3.72358583e-14,9.86917928 -3.73034936e-14,9.31689453 L-3.73034936e-14,7.31689453 C-3.68806016e-14,6.76460978 0.44771525,6.31689453 1,6.31689453 Z" id="矩形"></path>
                <path d="M1,21.3168945 L20.1132813,21.3168945 L20.1132812,17.0116389 C20.1132812,16.4593541 20.5609965,16.0116389 21.1132812,16.0116389 C21.3312371,16.0116389 21.5432252,16.0828477 21.716982,16.2144278 L30.6037007,22.9440367 C30.853329,23.1330717 31,23.4281207 31,23.7412477 L31,24.3168945 C31,24.8691793 30.5522847,25.3168945 30,25.3168945 L1,25.3168945 C0.44771525,25.3168945 -3.72358583e-14,24.8691793 -3.73034936e-14,24.3168945 L-3.73034936e-14,22.3168945 C-3.68806016e-14,21.7646098 0.44771525,21.3168945 1,21.3168945 Z" id="矩形-copy" transform="translate(15.500000, 20.158447) rotate(-180.000000) translate(-15.500000, -20.158447) "></path>
            </g>
        </g>
    </g>
</svg>